<?xml version="1.0" encoding="UTF-8"?>
<svg id="_Слой_1" data-name="Слой 1" xmlns="http://www.w3.org/2000/svg" viewBox="0 0 800 300">
  <defs>
    <style>
      .cls-1 {
        fill: gray;
      }

      .cls-2 {
        fill: #ebebeb;
      }

      .cls-3 {
        fill: #b3b3b3;
      }
    </style>
  </defs>
  <g>
    <rect class="cls-2" x="1.5" y="1.5" width="797" height="297"/>
    <path class="cls-3" d="m797,3v294H3V3h794m3-3H0v300h800V0h0Z"/>
  </g>
  <path class="cls-1" d="m447.91,106.09c2.2,0,3.99,1.8,3.99,3.99v79.79l-1.25-1.62-33.93-43.91c-1.12-1.47-2.89-2.32-4.74-2.32s-3.59.85-4.74,2.32l-20.71,26.8-7.61-10.65c-1.12-1.57-2.92-2.5-4.87-2.5s-3.74.92-4.87,2.52l-19.96,27.94-1.12,1.55v-79.92c0-2.2,1.8-3.99,3.99-3.99h95.81Zm-95.81-11.98c-8.81,0-15.97,7.16-15.97,15.97v79.84c0,8.81,7.16,15.97,15.97,15.97h95.81c8.81,0,15.97-7.16,15.97-15.97v-79.84c0-8.81-7.16-15.97-15.97-15.97h-95.81Zm19.96,47.91c6.61,0,11.98-5.36,11.98-11.98s-5.36-11.98-11.98-11.98-11.98,5.36-11.98,11.98,5.36,11.98,11.98,11.98Z"/>
</svg>